STARTFONT 2.1
COMMENT
COMMENT Converted from OpenType font "slkscrb.ttf" by "otf2bdf 3.0".
COMMENT
FONT -FreeType-Silkscreen-Bold-R-Normal--16-160-72-72-P-98-ISO10646-1
SIZE 16 72 72
FONTBOUNDINGBOX 20 20 0 -4
STARTPROPERTIES 19
FOUNDRY "FreeType"
FAMILY_NAME "Silkscreen"
WEIGHT_NAME "Bold"
SLANT "R"
SETWIDTH_NAME "Normal"
ADD_STYLE_NAME ""
PIXEL_SIZE 16
POINT_SIZE 160
RESOLUTION_X 72
RESOLUTION_Y 72
SPACING "P"
AVERAGE_WIDTH 98
CHARSET_REGISTRY "ISO10646"
CHARSET_ENCODING "1"
FONT_ASCENT 16
FONT_DESCENT 4
COPYRIGHT "Copyright (c) Jason Kottke, 2001. All rights reserved."
_OTF_FONTFILE "slkscrb.ttf"
_OTF_PSNAME "Silkscreen-Bold"
ENDPROPERTIES
CHARS 218
STARTCHAR 0020
ENCODING 32
SWIDTH 500 0
DWIDTH 8 0
BBX 0 0 0 0
BITMAP
ENDCHAR
STARTCHAR 0021
ENCODING 33
SWIDTH 500 0
DWIDTH 8 0
BBX 4 10 2 0
BITMAP
F0
F0
F0
F0
F0
F0
00
00
F0
F0
ENDCHAR
STARTCHAR 0022
ENCODING 34
SWIDTH 750 0
DWIDTH 12 0
BBX 8 4 2 6
BITMAP
FF
FF
FF
FF
ENDCHAR
STARTCHAR 0023
ENCODING 35
SWIDTH 1000 0
DWIDTH 16 0
BBX 12 10 2 0
BITMAP
3FC0
3FC0
FFF0
FFF0
3FC0
3FC0
FFF0
FFF0
3FC0
3FC0
ENDCHAR
STARTCHAR 0024
ENCODING 36
SWIDTH 875 0
DWIDTH 14 0
BBX 10 14 2 -2
BITMAP
0F00
0F00
3FC0
3FC0
F000
F000
3F00
3F00
03C0
03C0
FF00
FF00
3C00
3C00
ENDCHAR
STARTCHAR 0025
ENCODING 37
SWIDTH 1000 0
DWIDTH 16 0
BBX 12 10 2 0
BITMAP
FFC0
FFC0
FFC0
FFC0
0F00
0F00
3FF0
3FF0
3FF0
3FF0
ENDCHAR
STARTCHAR 0026
ENCODING 38
SWIDTH 875 0
DWIDTH 14 0
BBX 10 14 2 -2
BITMAP
0F00
0F00
3FC0
3FC0
F000
F000
3F00
3F00
F000
F000
3FC0
3FC0
0F00
0F00
ENDCHAR
STARTCHAR 0027
ENCODING 39
SWIDTH 500 0
DWIDTH 8 0
BBX 4 4 2 6
BITMAP
F0
F0
F0
F0
ENDCHAR
STARTCHAR 0028
ENCODING 40
SWIDTH 625 0
DWIDTH 10 0
BBX 6 10 2 0
BITMAP
3C
3C
F0
F0
F0
F0
F0
F0
3C
3C
ENDCHAR
STARTCHAR 0029
ENCODING 41
SWIDTH 625 0
DWIDTH 10 0
BBX 6 10 2 0
BITMAP
F0
F0
3C
3C
3C
3C
3C
3C
F0
F0
ENDCHAR
STARTCHAR 002A
ENCODING 42
SWIDTH 1000 0
DWIDTH 16 0
BBX 12 10 2 0
BITMAP
0F00
0F00
FFF0
FFF0
3FC0
3FC0
FFF0
FFF0
0F00
0F00
ENDCHAR
STARTCHAR 002B
ENCODING 43
SWIDTH 1000 0
DWIDTH 16 0
BBX 12 10 2 0
BITMAP
0F00
0F00
0F00
0F00
FFF0
FFF0
0F00
0F00
0F00
0F00
ENDCHAR
STARTCHAR 002C
ENCODING 44
SWIDTH 625 0
DWIDTH 10 0
BBX 6 4 2 -2
BITMAP
3C
3C
F0
F0
ENDCHAR
STARTCHAR 002D
ENCODING 45
SWIDTH 750 0
DWIDTH 12 0
BBX 8 2 2 4
BITMAP
FF
FF
ENDCHAR
STARTCHAR 002E
ENCODING 46
SWIDTH 500 0
DWIDTH 8 0
BBX 4 2 2 0
BITMAP
F0
F0
ENDCHAR
STARTCHAR 002F
ENCODING 47
SWIDTH 750 0
DWIDTH 12 0
BBX 8 10 2 0
BITMAP
0F
0F
0F
0F
3C
3C
F0
F0
F0
F0
ENDCHAR
STARTCHAR 0030
ENCODING 48
SWIDTH 875 0
DWIDTH 14 0
BBX 10 10 2 0
BITMAP
3F00
3F00
F3C0
F3C0
F3C0
F3C0
F3C0
F3C0
3F00
3F00
ENDCHAR
STARTCHAR 0031
ENCODING 49
SWIDTH 750 0
DWIDTH 12 0
BBX 8 10 2 0
BITMAP
FC
FC
3C
3C
3C
3C
3C
3C
FF
FF
ENDCHAR
STARTCHAR 0032
ENCODING 50
SWIDTH 875 0
DWIDTH 14 0
BBX 10 10 2 0
BITMAP
FF00
FF00
03C0
03C0
3F00
3F00
F000
F000
FFC0
FFC0
ENDCHAR
STARTCHAR 0033
ENCODING 51
SWIDTH 875 0
DWIDTH 14 0
BBX 10 10 2 0
BITMAP
FF00
FF00
03C0
03C0
3F00
3F00
03C0
03C0
FF00
FF00
ENDCHAR
STARTCHAR 0034
ENCODING 52
SWIDTH 875 0
DWIDTH 14 0
BBX 10 10 2 0
BITMAP
FF00
FF00
FF00
FF00
FFC0
FFC0
0F00
0F00
0F00
0F00
ENDCHAR
STARTCHAR 0035
ENCODING 53
SWIDTH 875 0
DWIDTH 14 0
BBX 10 10 2 0
BITMAP
FFC0
FFC0
F000
F000
FF00
FF00
03C0
03C0
FF00
FF00
ENDCHAR
STARTCHAR 0036
ENCODING 54
SWIDTH 875 0
DWIDTH 14 0
BBX 10 10 2 0
BITMAP
3F00
3F00
F000
F000
FF00
FF00
F3C0
F3C0
3F00
3F00
ENDCHAR
STARTCHAR 0037
ENCODING 55
SWIDTH 875 0
DWIDTH 14 0
BBX 10 10 2 0
BITMAP
FFC0
FFC0
03C0
03C0
0F00
0F00
3C00
3C00
3C00
3C00
ENDCHAR
STARTCHAR 0038
ENCODING 56
SWIDTH 875 0
DWIDTH 14 0
BBX 10 10 2 0
BITMAP
3F00
3F00
F3C0
F3C0
3F00
3F00
F3C0
F3C0
3F00
3F00
ENDCHAR
STARTCHAR 0039
ENCODING 57
SWIDTH 875 0
DWIDTH 14 0
BBX 10 10 2 0
BITMAP
3F00
3F00
F3C0
F3C0
3FC0
3FC0
03C0
03C0
3F00
3F00
ENDCHAR
STARTCHAR 003A
ENCODING 58
SWIDTH 500 0
DWIDTH 8 0
BBX 4 6 2 2
BITMAP
F0
F0
00
00
F0
F0
ENDCHAR
STARTCHAR 003B
ENCODING 59
SWIDTH 625 0
DWIDTH 10 0
BBX 6 8 2 0
BITMAP
3C
3C
00
00
3C
3C
F0
F0
ENDCHAR
STARTCHAR 003C
ENCODING 60
SWIDTH 750 0
DWIDTH 12 0
BBX 8 10 2 0
BITMAP
0F
0F
3C
3C
F0
F0
3C
3C
0F
0F
ENDCHAR
STARTCHAR 003D
ENCODING 61
SWIDTH 750 0
DWIDTH 12 0
BBX 8 6 2 2
BITMAP
FF
FF
00
00
FF
FF
ENDCHAR
STARTCHAR 003E
ENCODING 62
SWIDTH 750 0
DWIDTH 12 0
BBX 8 10 2 0
BITMAP
F0
F0
3C
3C
0F
0F
3C
3C
F0
F0
ENDCHAR
STARTCHAR 003F
ENCODING 63
SWIDTH 875 0
DWIDTH 14 0
BBX 10 10 2 0
BITMAP
FF00
FF00
03C0
03C0
3F00
3F00
0000
0000
3C00
3C00
ENDCHAR
STARTCHAR 0040
ENCODING 64
SWIDTH 1000 0
DWIDTH 16 0
BBX 12 10 2 0
BITMAP
3FC0
3FC0
FFF0
FFF0
FFC0
FFC0
F000
F000
3FC0
3FC0
ENDCHAR
STARTCHAR 0041
ENCODING 65
SWIDTH 875 0
DWIDTH 14 0
BBX 10 10 2 0
BITMAP
3F00
3F00
F3C0
F3C0
FFC0
FFC0
F3C0
F3C0
F3C0
F3C0
ENDCHAR
STARTCHAR 0042
ENCODING 66
SWIDTH 875 0
DWIDTH 14 0
BBX 10 10 2 0
BITMAP
FF00
FF00
F3C0
F3C0
FFC0
FFC0
F3C0
F3C0
FF00
FF00
ENDCHAR
STARTCHAR 0043
ENCODING 67
SWIDTH 875 0
DWIDTH 14 0
BBX 10 10 2 0
BITMAP
3F00
3F00
F3C0
F3C0
F000
F000
F3C0
F3C0
3F00
3F00
ENDCHAR
STARTCHAR 0044
ENCODING 68
SWIDTH 875 0
DWIDTH 14 0
BBX 10 10 2 0
BITMAP
FF00
FF00
F3C0
F3C0
F3C0
F3C0
F3C0
F3C0
FF00
FF00
ENDCHAR
STARTCHAR 0045
ENCODING 69
SWIDTH 750 0
DWIDTH 12 0
BBX 8 10 2 0
BITMAP
FF
FF
F0
F0
FF
FF
F0
F0
FF
FF
ENDCHAR
STARTCHAR 0046
ENCODING 70
SWIDTH 750 0
DWIDTH 12 0
BBX 8 10 2 0
BITMAP
FF
FF
F0
F0
FF
FF
F0
F0
F0
F0
ENDCHAR
STARTCHAR 0047
ENCODING 71
SWIDTH 875 0
DWIDTH 14 0
BBX 10 10 2 0
BITMAP
3FC0
3FC0
F000
F000
F3C0
F3C0
F3C0
F3C0
3F00
3F00
ENDCHAR
STARTCHAR 0048
ENCODING 72
SWIDTH 875 0
DWIDTH 14 0
BBX 10 10 2 0
BITMAP
F3C0
F3C0
F3C0
F3C0
FFC0
FFC0
F3C0
F3C0
F3C0
F3C0
ENDCHAR
STARTCHAR 0049
ENCODING 73
SWIDTH 500 0
DWIDTH 8 0
BBX 4 10 2 0
BITMAP
F0
F0
F0
F0
F0
F0
F0
F0
F0
F0
ENDCHAR
STARTCHAR 004A
ENCODING 74
SWIDTH 875 0
DWIDTH 14 0
BBX 10 10 2 0
BITMAP
03C0
03C0
03C0
03C0
03C0
03C0
F3C0
F3C0
3F00
3F00
ENDCHAR
STARTCHAR 004B
ENCODING 75
SWIDTH 875 0
DWIDTH 14 0
BBX 10 10 2 0
BITMAP
F3C0
F3C0
FF00
FF00
FC00
FC00
FF00
FF00
F3C0
F3C0
ENDCHAR
STARTCHAR 004C
ENCODING 76
SWIDTH 750 0
DWIDTH 12 0
BBX 8 10 2 0
BITMAP
F0
F0
F0
F0
F0
F0
F0
F0
FF
FF
ENDCHAR
STARTCHAR 004D
ENCODING 77
SWIDTH 1000 0
DWIDTH 16 0
BBX 12 10 2 0
BITMAP
F0F0
F0F0
FFF0
FFF0
FFF0
FFF0
F0F0
F0F0
F0F0
F0F0
ENDCHAR
STARTCHAR 004E
ENCODING 78
SWIDTH 1000 0
DWIDTH 16 0
BBX 12 10 2 0
BITMAP
F0F0
F0F0
FCF0
FCF0
FFF0
FFF0
F3F0
F3F0
F0F0
F0F0
ENDCHAR
STARTCHAR 004F
ENCODING 79
SWIDTH 875 0
DWIDTH 14 0
BBX 10 10 2 0
BITMAP
3F00
3F00
F3C0
F3C0
F3C0
F3C0
F3C0
F3C0
3F00
3F00
ENDCHAR
STARTCHAR 0050
ENCODING 80
SWIDTH 875 0
DWIDTH 14 0
BBX 10 10 2 0
BITMAP
FF00
FF00
F3C0
F3C0
FF00
FF00
F000
F000
F000
F000
ENDCHAR
STARTCHAR 0051
ENCODING 81
SWIDTH 875 0
DWIDTH 14 0
BBX 10 12 2 -2
BITMAP
3F00
3F00
F3C0
F3C0
F3C0
F3C0
F3C0
F3C0
3F00
3F00
03C0
03C0
ENDCHAR
STARTCHAR 0052
ENCODING 82
SWIDTH 875 0
DWIDTH 14 0
BBX 10 10 2 0
BITMAP
FF00
FF00
F3C0
F3C0
FF00
FF00
FF00
FF00
F3C0
F3C0
ENDCHAR
STARTCHAR 0053
ENCODING 83
SWIDTH 875 0
DWIDTH 14 0
BBX 10 10 2 0
BITMAP
3FC0
3FC0
F000
F000
3F00
3F00
03C0
03C0
FF00
FF00
ENDCHAR
STARTCHAR 0054
ENCODING 84
SWIDTH 750 0
DWIDTH 12 0
BBX 8 10 2 0
BITMAP
FF
FF
3C
3C
3C
3C
3C
3C
3C
3C
ENDCHAR
STARTCHAR 0055
ENCODING 85
SWIDTH 875 0
DWIDTH 14 0
BBX 10 10 2 0
BITMAP
F3C0
F3C0
F3C0
F3C0
F3C0
F3C0
F3C0
F3C0
3F00
3F00
ENDCHAR
STARTCHAR 0056
ENCODING 86
SWIDTH 1000 0
DWIDTH 16 0
BBX 12 10 2 0
BITMAP
F0F0
F0F0
F0F0
F0F0
3FC0
3FC0
3FC0
3FC0
0F00
0F00
ENDCHAR
STARTCHAR 0057
ENCODING 87
SWIDTH 1000 0
DWIDTH 16 0
BBX 12 10 2 0
BITMAP
F0F0
F0F0
FFF0
FFF0
FFF0
FFF0
FFF0
FFF0
3FC0
3FC0
ENDCHAR
STARTCHAR 0058
ENCODING 88
SWIDTH 1000 0
DWIDTH 16 0
BBX 12 10 2 0
BITMAP
F0F0
F0F0
3FC0
3FC0
0F00
0F00
3FC0
3FC0
F0F0
F0F0
ENDCHAR
STARTCHAR 0059
ENCODING 89
SWIDTH 1000 0
DWIDTH 16 0
BBX 12 10 2 0
BITMAP
F0F0
F0F0
3FC0
3FC0
0F00
0F00
0F00
0F00
0F00
0F00
ENDCHAR
STARTCHAR 005A
ENCODING 90
SWIDTH 750 0
DWIDTH 12 0
BBX 8 10 2 0
BITMAP
FF
FF
0F
0F
3C
3C
F0
F0
FF
FF
ENDCHAR
STARTCHAR 005B
ENCODING 91
SWIDTH 625 0
DWIDTH 10 0
BBX 6 10 2 0
BITMAP
FC
FC
F0
F0
F0
F0
F0
F0
FC
FC
ENDCHAR
STARTCHAR 005C
ENCODING 92
SWIDTH 750 0
DWIDTH 12 0
BBX 8 10 2 0
BITMAP
F0
F0
F0
F0
3C
3C
0F
0F
0F
0F
ENDCHAR
STARTCHAR 005D
ENCODING 93
SWIDTH 625 0
DWIDTH 10 0
BBX 6 10 2 0
BITMAP
FC
FC
3C
3C
3C
3C
3C
3C
FC
FC
ENDCHAR
STARTCHAR 005E
ENCODING 94
SWIDTH 750 0
DWIDTH 12 0
BBX 8 4 2 8
BITMAP
3C
3C
FF
FF
ENDCHAR
STARTCHAR 005F
ENCODING 95
SWIDTH 875 0
DWIDTH 14 0
BBX 10 2 2 -2
BITMAP
FFC0
FFC0
ENDCHAR
STARTCHAR 0060
ENCODING 96
SWIDTH 625 0
DWIDTH 10 0
BBX 6 4 2 6
BITMAP
F0
F0
3C
3C
ENDCHAR
STARTCHAR 0061
ENCODING 97
SWIDTH 875 0
DWIDTH 14 0
BBX 10 10 2 0
BITMAP
3F00
3F00
F3C0
F3C0
FFC0
FFC0
F3C0
F3C0
F3C0
F3C0
ENDCHAR
STARTCHAR 0062
ENCODING 98
SWIDTH 875 0
DWIDTH 14 0
BBX 10 10 2 0
BITMAP
FF00
FF00
F3C0
F3C0
FFC0
FFC0
F3C0
F3C0
FF00
FF00
ENDCHAR
STARTCHAR 0063
ENCODING 99
SWIDTH 875 0
DWIDTH 14 0
BBX 10 10 2 0
BITMAP
3F00
3F00
F3C0
F3C0
F000
F000
F3C0
F3C0
3F00
3F00
ENDCHAR
STARTCHAR 0064
ENCODING 100
SWIDTH 875 0
DWIDTH 14 0
BBX 10 10 2 0
BITMAP
FF00
FF00
F3C0
F3C0
F3C0
F3C0
F3C0
F3C0
FF00
FF00
ENDCHAR
STARTCHAR 0065
ENCODING 101
SWIDTH 750 0
DWIDTH 12 0
BBX 8 10 2 0
BITMAP
FF
FF
F0
F0
FF
FF
F0
F0
FF
FF
ENDCHAR
STARTCHAR 0066
ENCODING 102
SWIDTH 750 0
DWIDTH 12 0
BBX 8 10 2 0
BITMAP
FF
FF
F0
F0
FF
FF
F0
F0
F0
F0
ENDCHAR
STARTCHAR 0067
ENCODING 103
SWIDTH 875 0
DWIDTH 14 0
BBX 10 10 2 0
BITMAP
3FC0
3FC0
F000
F000
F3C0
F3C0
F3C0
F3C0
3F00
3F00
ENDCHAR
STARTCHAR 0068
ENCODING 104
SWIDTH 875 0
DWIDTH 14 0
BBX 10 10 2 0
BITMAP
F3C0
F3C0
F3C0
F3C0
FFC0
FFC0
F3C0
F3C0
F3C0
F3C0
ENDCHAR
STARTCHAR 0069
ENCODING 105
SWIDTH 500 0
DWIDTH 8 0
BBX 4 10 2 0
BITMAP
F0
F0
F0
F0
F0
F0
F0
F0
F0
F0
ENDCHAR
STARTCHAR 006A
ENCODING 106
SWIDTH 875 0
DWIDTH 14 0
BBX 10 10 2 0
BITMAP
03C0
03C0
03C0
03C0
03C0
03C0
F3C0
F3C0
3F00
3F00
ENDCHAR
STARTCHAR 006B
ENCODING 107
SWIDTH 875 0
DWIDTH 14 0
BBX 10 10 2 0
BITMAP
F3C0
F3C0
FF00
FF00
FC00
FC00
FF00
FF00
F3C0
F3C0
ENDCHAR
STARTCHAR 006C
ENCODING 108
SWIDTH 750 0
DWIDTH 12 0
BBX 8 10 2 0
BITMAP
F0
F0
F0
F0
F0
F0
F0
F0
FF
FF
ENDCHAR
STARTCHAR 006D
ENCODING 109
SWIDTH 1000 0
DWIDTH 16 0
BBX 12 10 2 0
BITMAP
F0F0
F0F0
FFF0
FFF0
FFF0
FFF0
F0F0
F0F0
F0F0
F0F0
ENDCHAR
STARTCHAR 006E
ENCODING 110
SWIDTH 1000 0
DWIDTH 16 0
BBX 12 10 2 0
BITMAP
F0F0
F0F0
FCF0
FCF0
FFF0
FFF0
F3F0
F3F0
F0F0
F0F0
ENDCHAR
STARTCHAR 006F
ENCODING 111
SWIDTH 875 0
DWIDTH 14 0
BBX 10 10 2 0
BITMAP
3F00
3F00
F3C0
F3C0
F3C0
F3C0
F3C0
F3C0
3F00
3F00
ENDCHAR
STARTCHAR 0070
ENCODING 112
SWIDTH 875 0
DWIDTH 14 0
BBX 10 10 2 0
BITMAP
FF00
FF00
F3C0
F3C0
FF00
FF00
F000
F000
F000
F000
ENDCHAR
STARTCHAR 0071
ENCODING 113
SWIDTH 875 0
DWIDTH 14 0
BBX 10 12 2 -2
BITMAP
3F00
3F00
F3C0
F3C0
F3C0
F3C0
F3C0
F3C0
3F00
3F00
03C0
03C0
ENDCHAR
STARTCHAR 0072
ENCODING 114
SWIDTH 875 0
DWIDTH 14 0
BBX 10 10 2 0
BITMAP
FF00
FF00
F3C0
F3C0
FF00
FF00
FF00
FF00
F3C0
F3C0
ENDCHAR
STARTCHAR 0073
ENCODING 115
SWIDTH 875 0
DWIDTH 14 0
BBX 10 10 2 0
BITMAP
3FC0
3FC0
F000
F000
3F00
3F00
03C0
03C0
FF00
FF00
ENDCHAR
STARTCHAR 0074
ENCODING 116
SWIDTH 750 0
DWIDTH 12 0
BBX 8 10 2 0
BITMAP
FF
FF
3C
3C
3C
3C
3C
3C
3C
3C
ENDCHAR
STARTCHAR 0075
ENCODING 117
SWIDTH 875 0
DWIDTH 14 0
BBX 10 10 2 0
BITMAP
F3C0
F3C0
F3C0
F3C0
F3C0
F3C0
F3C0
F3C0
3F00
3F00
ENDCHAR
STARTCHAR 0076
ENCODING 118
SWIDTH 1000 0
DWIDTH 16 0
BBX 12 10 2 0
BITMAP
F0F0
F0F0
F0F0
F0F0
3FC0
3FC0
3FC0
3FC0
0F00
0F00
ENDCHAR
STARTCHAR 0077
ENCODING 119
SWIDTH 1000 0
DWIDTH 16 0
BBX 12 10 2 0
BITMAP
F0F0
F0F0
FFF0
FFF0
FFF0
FFF0
FFF0
FFF0
3FC0
3FC0
ENDCHAR
STARTCHAR 0078
ENCODING 120
SWIDTH 1000 0
DWIDTH 16 0
BBX 12 10 2 0
BITMAP
F0F0
F0F0
3FC0
3FC0
0F00
0F00
3FC0
3FC0
F0F0
F0F0
ENDCHAR
STARTCHAR 0079
ENCODING 121
SWIDTH 1000 0
DWIDTH 16 0
BBX 12 10 2 0
BITMAP
F0F0
F0F0
3FC0
3FC0
0F00
0F00
0F00
0F00
0F00
0F00
ENDCHAR
STARTCHAR 007A
ENCODING 122
SWIDTH 750 0
DWIDTH 12 0
BBX 8 10 2 0
BITMAP
FF
FF
0F
0F
3C
3C
F0
F0
FF
FF
ENDCHAR
STARTCHAR 007B
ENCODING 123
SWIDTH 750 0
DWIDTH 12 0
BBX 8 10 2 0
BITMAP
3F
3F
3C
3C
F0
F0
3C
3C
3F
3F
ENDCHAR
STARTCHAR 007C
ENCODING 124
SWIDTH 500 0
DWIDTH 8 0
BBX 4 14 2 -2
BITMAP
F0
F0
F0
F0
F0
F0
F0
F0
F0
F0
F0
F0
F0
F0
ENDCHAR
STARTCHAR 007D
ENCODING 125
SWIDTH 750 0
DWIDTH 12 0
BBX 8 10 2 0
BITMAP
FC
FC
3C
3C
0F
0F
3C
3C
FC
FC
ENDCHAR
STARTCHAR 007E
ENCODING 126
SWIDTH 875 0
DWIDTH 14 0
BBX 10 4 2 6
BITMAP
3FC0
3FC0
FF00
FF00
ENDCHAR
STARTCHAR 00A0
ENCODING 160
SWIDTH 500 0
DWIDTH 8 0
BBX 0 0 0 0
BITMAP
ENDCHAR
STARTCHAR 00A1
ENCODING 161
SWIDTH 500 0
DWIDTH 8 0
BBX 4 10 2 0
BITMAP
F0
F0
00
00
F0
F0
F0
F0
F0
F0
ENDCHAR
STARTCHAR 00A2
ENCODING 162
SWIDTH 750 0
DWIDTH 12 0
BBX 8 10 2 0
BITMAP
3C
3C
FF
FF
F0
F0
FF
FF
3C
3C
ENDCHAR
STARTCHAR 00A3
ENCODING 163
SWIDTH 875 0
DWIDTH 14 0
BBX 10 10 2 0
BITMAP
0FC0
0FC0
0F00
0F00
FF00
FF00
3C00
3C00
FFC0
FFC0
ENDCHAR
STARTCHAR 00A4
ENCODING 164
SWIDTH 1000 0
DWIDTH 16 0
BBX 12 10 2 0
BITMAP
FFF0
FFF0
3FC0
3FC0
3FC0
3FC0
3FC0
3FC0
FFF0
FFF0
ENDCHAR
STARTCHAR 00A5
ENCODING 165
SWIDTH 1000 0
DWIDTH 16 0
BBX 12 10 2 0
BITMAP
F0F0
F0F0
3FC0
3FC0
0F00
0F00
3FC0
3FC0
0F00
0F00
ENDCHAR
STARTCHAR 00A6
ENCODING 166
SWIDTH 500 0
DWIDTH 8 0
BBX 4 10 2 0
BITMAP
F0
F0
F0
F0
00
00
F0
F0
F0
F0
ENDCHAR
STARTCHAR 00A7
ENCODING 167
SWIDTH 875 0
DWIDTH 14 0
BBX 10 14 2 -2
BITMAP
3F00
3F00
F000
F000
3F00
3F00
F3C0
F3C0
3F00
3F00
03C0
03C0
3F00
3F00
ENDCHAR
STARTCHAR 00A8
ENCODING 168
SWIDTH 750 0
DWIDTH 12 0
BBX 8 2 2 8
BITMAP
FF
FF
ENDCHAR
STARTCHAR 00A9
ENCODING 169
SWIDTH 1250 0
DWIDTH 20 0
BBX 16 14 2 -2
BITMAP
3FFC
3FFC
F00F
F00F
FFFF
FFFF
FF0F
FF0F
FFFF
FFFF
F00F
F00F
3FFC
3FFC
ENDCHAR
STARTCHAR 00AA
ENCODING 170
SWIDTH 750 0
DWIDTH 12 0
BBX 8 6 2 4
BITMAP
3C
3C
FF
FF
3F
3F
ENDCHAR
STARTCHAR 00AB
ENCODING 171
SWIDTH 1000 0
DWIDTH 16 0
BBX 12 6 2 2
BITMAP
3CF0
3CF0
F3C0
F3C0
3CF0
3CF0
ENDCHAR
STARTCHAR 00AC
ENCODING 172
SWIDTH 875 0
DWIDTH 14 0
BBX 10 4 2 2
BITMAP
FFC0
FFC0
03C0
03C0
ENDCHAR
STARTCHAR 00AD
ENCODING 173
SWIDTH 750 0
DWIDTH 12 0
BBX 8 2 2 4
BITMAP
FF
FF
ENDCHAR
STARTCHAR 00AE
ENCODING 174
SWIDTH 1250 0
DWIDTH 20 0
BBX 16 14 2 -2
BITMAP
3FFC
3FFC
F00F
F00F
F3FF
F3FF
FF0F
FF0F
FF0F
FF0F
F00F
F00F
3FFC
3FFC
ENDCHAR
STARTCHAR 00AF
ENCODING 175
SWIDTH 875 0
DWIDTH 14 0
BBX 10 2 2 8
BITMAP
FFC0
FFC0
ENDCHAR
STARTCHAR 00B0
ENCODING 176
SWIDTH 750 0
DWIDTH 12 0
BBX 8 6 2 4
BITMAP
3C
3C
FF
FF
3C
3C
ENDCHAR
STARTCHAR 00B1
ENCODING 177
SWIDTH 1000 0
DWIDTH 16 0
BBX 12 12 2 -2
BITMAP
0F00
0F00
0F00
0F00
FFF0
FFF0
0F00
0F00
0F00
0F00
FFF0
FFF0
ENDCHAR
STARTCHAR 00B2
ENCODING 178
SWIDTH 750 0
DWIDTH 12 0
BBX 8 8 2 2
BITMAP
FC
FC
0F
0F
3C
3C
FF
FF
ENDCHAR
STARTCHAR 00B3
ENCODING 179
SWIDTH 750 0
DWIDTH 12 0
BBX 8 8 2 2
BITMAP
FC
FC
3F
3F
0F
0F
FF
FF
ENDCHAR
STARTCHAR 00B4
ENCODING 180
SWIDTH 625 0
DWIDTH 10 0
BBX 6 4 2 6
BITMAP
3C
3C
F0
F0
ENDCHAR
STARTCHAR 00B5
ENCODING 181
SWIDTH 875 0
DWIDTH 14 0
BBX 10 12 2 -2
BITMAP
F3C0
F3C0
F3C0
F3C0
F3C0
F3C0
F3C0
F3C0
FF00
FF00
F000
F000
ENDCHAR
STARTCHAR 00B6
ENCODING 182
SWIDTH 1000 0
DWIDTH 16 0
BBX 12 10 2 0
BITMAP
3FF0
3FF0
FFF0
FFF0
3FF0
3FF0
0FF0
0FF0
0FF0
0FF0
ENDCHAR
STARTCHAR 00B7
ENCODING 183
SWIDTH 500 0
DWIDTH 8 0
BBX 4 2 2 4
BITMAP
F0
F0
ENDCHAR
STARTCHAR 00B8
ENCODING 184
SWIDTH 625 0
DWIDTH 10 0
BBX 6 4 2 -2
BITMAP
3C
3C
F0
F0
ENDCHAR
STARTCHAR 00B9
ENCODING 185
SWIDTH 625 0
DWIDTH 10 0
BBX 6 8 2 2
BITMAP
FC
FC
3C
3C
3C
3C
3C
3C
ENDCHAR
STARTCHAR 00BA
ENCODING 186
SWIDTH 750 0
DWIDTH 12 0
BBX 8 6 2 4
BITMAP
3C
3C
FF
FF
3C
3C
ENDCHAR
STARTCHAR 00BB
ENCODING 187
SWIDTH 1000 0
DWIDTH 16 0
BBX 12 6 2 2
BITMAP
F3C0
F3C0
3CF0
3CF0
F3C0
F3C0
ENDCHAR
STARTCHAR 00BC
ENCODING 188
SWIDTH 1250 0
DWIDTH 20 0
BBX 16 10 2 0
BITMAP
F3C0
F3C0
F3C0
F3C0
FFFF
FFFF
3CFF
3CFF
3C0F
3C0F
ENDCHAR
STARTCHAR 00BD
ENCODING 189
SWIDTH 1250 0
DWIDTH 20 0
BBX 16 10 2 0
BITMAP
F3C0
F3C0
F3FC
F3FC
FF0F
FF0F
3C3C
3C3C
3CFF
3CFF
ENDCHAR
STARTCHAR 00BE
ENCODING 190
SWIDTH 1375 0
DWIDTH 22 0
BBX 18 10 2 0
BITMAP
FCF000
FCF000
3FF000
3FF000
0FFFC0
0FFFC0
FF3FC0
FF3FC0
0F03C0
0F03C0
ENDCHAR
STARTCHAR 00BF
ENCODING 191
SWIDTH 875 0
DWIDTH 14 0
BBX 10 10 2 0
BITMAP
0F00
0F00
0000
0000
3F00
3F00
F000
F000
3FC0
3FC0
ENDCHAR
STARTCHAR 00C0
ENCODING 192
SWIDTH 875 0
DWIDTH 14 0
BBX 10 16 2 0
BITMAP
3C00
3C00
0F00
0F00
0000
0000
3F00
3F00
F3C0
F3C0
FFC0
FFC0
F3C0
F3C0
F3C0
F3C0
ENDCHAR
STARTCHAR 00C1
ENCODING 193
SWIDTH 875 0
DWIDTH 14 0
BBX 10 16 2 0
BITMAP
0F00
0F00
3C00
3C00
0000
0000
3F00
3F00
F3C0
F3C0
FFC0
FFC0
F3C0
F3C0
F3C0
F3C0
ENDCHAR
STARTCHAR 00C2
ENCODING 194
SWIDTH 875 0
DWIDTH 14 0
BBX 10 16 2 0
BITMAP
3F00
3F00
F3C0
F3C0
0000
0000
3F00
3F00
F3C0
F3C0
FFC0
FFC0
F3C0
F3C0
F3C0
F3C0
ENDCHAR
STARTCHAR 00C3
ENCODING 195
SWIDTH 875 0
DWIDTH 14 0
BBX 10 16 2 0
BITMAP
3FC0
3FC0
FF00
FF00
0000
0000
3F00
3F00
F3C0
F3C0
FFC0
FFC0
F3C0
F3C0
F3C0
F3C0
ENDCHAR
STARTCHAR 00C4
ENCODING 196
SWIDTH 875 0
DWIDTH 14 0
BBX 10 14 2 0
BITMAP
F3C0
F3C0
0000
0000
3F00
3F00
F3C0
F3C0
FFC0
FFC0
F3C0
F3C0
F3C0
F3C0
ENDCHAR
STARTCHAR 00C5
ENCODING 197
SWIDTH 875 0
DWIDTH 14 0
BBX 10 16 2 0
BITMAP
F3C0
F3C0
3F00
3F00
0000
0000
3F00
3F00
F3C0
F3C0
FFC0
FFC0
F3C0
F3C0
F3C0
F3C0
ENDCHAR
STARTCHAR 00C6
ENCODING 198
SWIDTH 1000 0
DWIDTH 16 0
BBX 12 10 2 0
BITMAP
3FF0
3FF0
FF00
FF00
FFF0
FFF0
FF00
FF00
FFF0
FFF0
ENDCHAR
STARTCHAR 00C7
ENCODING 199
SWIDTH 875 0
DWIDTH 14 0
BBX 10 14 2 -4
BITMAP
3F00
3F00
F3C0
F3C0
F000
F000
F3C0
F3C0
3F00
3F00
3C00
3C00
F000
F000
ENDCHAR
STARTCHAR 00C8
ENCODING 200
SWIDTH 750 0
DWIDTH 12 0
BBX 8 16 2 0
BITMAP
F0
F0
3C
3C
00
00
FF
FF
F0
F0
FF
FF
F0
F0
FF
FF
ENDCHAR
STARTCHAR 00C9
ENCODING 201
SWIDTH 750 0
DWIDTH 12 0
BBX 8 16 2 0
BITMAP
0F
0F
3C
3C
00
00
FF
FF
F0
F0
FF
FF
F0
F0
FF
FF
ENDCHAR
STARTCHAR 00CA
ENCODING 202
SWIDTH 750 0
DWIDTH 12 0
BBX 8 16 2 0
BITMAP
3C
3C
FF
FF
00
00
FF
FF
F0
F0
FF
FF
F0
F0
FF
FF
ENDCHAR
STARTCHAR 00CB
ENCODING 203
SWIDTH 750 0
DWIDTH 12 0
BBX 8 14 2 0
BITMAP
FF
FF
00
00
FF
FF
F0
F0
FF
FF
F0
F0
FF
FF
ENDCHAR
STARTCHAR 00CC
ENCODING 204
SWIDTH 500 0
DWIDTH 8 0
BBX 6 16 0 0
BITMAP
F0
F0
3C
3C
00
00
3C
3C
3C
3C
3C
3C
3C
3C
3C
3C
ENDCHAR
STARTCHAR 00CD
ENCODING 205
SWIDTH 500 0
DWIDTH 8 0
BBX 6 16 2 0
BITMAP
3C
3C
F0
F0
00
00
F0
F0
F0
F0
F0
F0
F0
F0
F0
F0
ENDCHAR
STARTCHAR 00CE
ENCODING 206
SWIDTH 500 0
DWIDTH 8 0
BBX 8 16 0 0
BITMAP
3C
3C
FF
FF
00
00
3C
3C
3C
3C
3C
3C
3C
3C
3C
3C
ENDCHAR
STARTCHAR 00CF
ENCODING 207
SWIDTH 500 0
DWIDTH 8 0
BBX 8 14 0 0
BITMAP
FF
FF
00
00
3C
3C
3C
3C
3C
3C
3C
3C
3C
3C
ENDCHAR
STARTCHAR 00D0
ENCODING 208
SWIDTH 1000 0
DWIDTH 16 0
BBX 12 10 2 0
BITMAP
3FC0
3FC0
3CF0
3CF0
FFF0
FFF0
3CF0
3CF0
3FC0
3FC0
ENDCHAR
STARTCHAR 00D1
ENCODING 209
SWIDTH 1000 0
DWIDTH 16 0
BBX 12 16 2 0
BITMAP
0FF0
0FF0
3FC0
3FC0
0000
0000
F0F0
F0F0
FCF0
FCF0
FFF0
FFF0
F3F0
F3F0
F0F0
F0F0
ENDCHAR
STARTCHAR 00D2
ENCODING 210
SWIDTH 875 0
DWIDTH 14 0
BBX 10 16 2 0
BITMAP
3C00
3C00
0F00
0F00
0000
0000
3F00
3F00
F3C0
F3C0
F3C0
F3C0
F3C0
F3C0
3F00
3F00
ENDCHAR
STARTCHAR 00D3
ENCODING 211
SWIDTH 875 0
DWIDTH 14 0
BBX 10 16 2 0
BITMAP
0F00
0F00
3C00
3C00
0000
0000
3F00
3F00
F3C0
F3C0
F3C0
F3C0
F3C0
F3C0
3F00
3F00
ENDCHAR
STARTCHAR 00D4
ENCODING 212
SWIDTH 875 0
DWIDTH 14 0
BBX 10 16 2 0
BITMAP
3F00
3F00
F3C0
F3C0
0000
0000
3F00
3F00
F3C0
F3C0
F3C0
F3C0
F3C0
F3C0
3F00
3F00
ENDCHAR
STARTCHAR 00D5
ENCODING 213
SWIDTH 875 0
DWIDTH 14 0
BBX 10 16 2 0
BITMAP
3FC0
3FC0
FF00
FF00
0000
0000
3F00
3F00
F3C0
F3C0
F3C0
F3C0
F3C0
F3C0
3F00
3F00
ENDCHAR
STARTCHAR 00D6
ENCODING 214
SWIDTH 875 0
DWIDTH 14 0
BBX 10 14 2 0
BITMAP
F3C0
F3C0
0000
0000
3F00
3F00
F3C0
F3C0
F3C0
F3C0
F3C0
F3C0
3F00
3F00
ENDCHAR
STARTCHAR 00D7
ENCODING 215
SWIDTH 750 0
DWIDTH 12 0
BBX 8 6 2 2
BITMAP
FF
FF
3C
3C
FF
FF
ENDCHAR
STARTCHAR 00D8
ENCODING 216
SWIDTH 1000 0
DWIDTH 16 0
BBX 12 10 2 0
BITMAP
3FC0
3FC0
F3F0
F3F0
FFF0
FFF0
FCF0
FCF0
3FC0
3FC0
ENDCHAR
STARTCHAR 00D9
ENCODING 217
SWIDTH 875 0
DWIDTH 14 0
BBX 10 16 2 0
BITMAP
3C00
3C00
0F00
0F00
0000
0000
F3C0
F3C0
F3C0
F3C0
F3C0
F3C0
F3C0
F3C0
3F00
3F00
ENDCHAR
STARTCHAR 00DA
ENCODING 218
SWIDTH 875 0
DWIDTH 14 0
BBX 10 16 2 0
BITMAP
0F00
0F00
3C00
3C00
0000
0000
F3C0
F3C0
F3C0
F3C0
F3C0
F3C0
F3C0
F3C0
3F00
3F00
ENDCHAR
STARTCHAR 00DB
ENCODING 219
SWIDTH 875 0
DWIDTH 14 0
BBX 10 16 2 0
BITMAP
3F00
3F00
F3C0
F3C0
0000
0000
F3C0
F3C0
F3C0
F3C0
F3C0
F3C0
F3C0
F3C0
3F00
3F00
ENDCHAR
STARTCHAR 00DC
ENCODING 220
SWIDTH 875 0
DWIDTH 14 0
BBX 10 14 2 0
BITMAP
F3C0
F3C0
0000
0000
F3C0
F3C0
F3C0
F3C0
F3C0
F3C0
F3C0
F3C0
3F00
3F00
ENDCHAR
STARTCHAR 00DD
ENCODING 221
SWIDTH 1000 0
DWIDTH 16 0
BBX 12 16 2 0
BITMAP
03C0
03C0
0F00
0F00
0000
0000
F0F0
F0F0
3FC0
3FC0
0F00
0F00
0F00
0F00
0F00
0F00
ENDCHAR
STARTCHAR 00DE
ENCODING 222
SWIDTH 750 0
DWIDTH 12 0
BBX 8 10 2 0
BITMAP
F0
F0
FC
FC
FF
FF
FC
FC
F0
F0
ENDCHAR
STARTCHAR 00DF
ENCODING 223
SWIDTH 875 0
DWIDTH 14 0
BBX 10 10 2 0
BITMAP
3F00
3F00
F3C0
F3C0
FF00
FF00
F3C0
F3C0
FF00
FF00
ENDCHAR
STARTCHAR 00E0
ENCODING 224
SWIDTH 875 0
DWIDTH 14 0
BBX 10 16 2 0
BITMAP
3C00
3C00
0F00
0F00
0000
0000
3F00
3F00
F3C0
F3C0
FFC0
FFC0
F3C0
F3C0
F3C0
F3C0
ENDCHAR
STARTCHAR 00E1
ENCODING 225
SWIDTH 875 0
DWIDTH 14 0
BBX 10 16 2 0
BITMAP
0F00
0F00
3C00
3C00
0000
0000
3F00
3F00
F3C0
F3C0
FFC0
FFC0
F3C0
F3C0
F3C0
F3C0
ENDCHAR
STARTCHAR 00E2
ENCODING 226
SWIDTH 875 0
DWIDTH 14 0
BBX 10 16 2 0
BITMAP
3F00
3F00
F3C0
F3C0
0000
0000
3F00
3F00
F3C0
F3C0
FFC0
FFC0
F3C0
F3C0
F3C0
F3C0
ENDCHAR
STARTCHAR 00E3
ENCODING 227
SWIDTH 875 0
DWIDTH 14 0
BBX 10 16 2 0
BITMAP
3FC0
3FC0
FF00
FF00
0000
0000
3F00
3F00
F3C0
F3C0
FFC0
FFC0
F3C0
F3C0
F3C0
F3C0
ENDCHAR
STARTCHAR 00E4
ENCODING 228
SWIDTH 875 0
DWIDTH 14 0
BBX 10 14 2 0
BITMAP
F3C0
F3C0
0000
0000
3F00
3F00
F3C0
F3C0
FFC0
FFC0
F3C0
F3C0
F3C0
F3C0
ENDCHAR
STARTCHAR 00E5
ENCODING 229
SWIDTH 875 0
DWIDTH 14 0
BBX 10 16 2 0
BITMAP
F3C0
F3C0
3F00
3F00
0000
0000
3F00
3F00
F3C0
F3C0
FFC0
FFC0
F3C0
F3C0
F3C0
F3C0
ENDCHAR
STARTCHAR 00E6
ENCODING 230
SWIDTH 1000 0
DWIDTH 16 0
BBX 12 10 2 0
BITMAP
3FF0
3FF0
FF00
FF00
FFF0
FFF0
FF00
FF00
FFF0
FFF0
ENDCHAR
STARTCHAR 00E7
ENCODING 231
SWIDTH 875 0
DWIDTH 14 0
BBX 10 14 2 -4
BITMAP
3F00
3F00
F3C0
F3C0
F000
F000
F3C0
F3C0
3F00
3F00
3C00
3C00
F000
F000
ENDCHAR
STARTCHAR 00E8
ENCODING 232
SWIDTH 750 0
DWIDTH 12 0
BBX 8 16 2 0
BITMAP
F0
F0
3C
3C
00
00
FF
FF
F0
F0
FF
FF
F0
F0
FF
FF
ENDCHAR
STARTCHAR 00E9
ENCODING 233
SWIDTH 750 0
DWIDTH 12 0
BBX 8 16 2 0
BITMAP
0F
0F
3C
3C
00
00
FF
FF
F0
F0
FF
FF
F0
F0
FF
FF
ENDCHAR
STARTCHAR 00EA
ENCODING 234
SWIDTH 750 0
DWIDTH 12 0
BBX 8 16 2 0
BITMAP
3C
3C
FF
FF
00
00
FF
FF
F0
F0
FF
FF
F0
F0
FF
FF
ENDCHAR
STARTCHAR 00EB
ENCODING 235
SWIDTH 750 0
DWIDTH 12 0
BBX 8 14 2 0
BITMAP
FF
FF
00
00
FF
FF
F0
F0
FF
FF
F0
F0
FF
FF
ENDCHAR
STARTCHAR 00EC
ENCODING 236
SWIDTH 500 0
DWIDTH 8 0
BBX 6 16 0 0
BITMAP
F0
F0
3C
3C
00
00
3C
3C
3C
3C
3C
3C
3C
3C
3C
3C
ENDCHAR
STARTCHAR 00ED
ENCODING 237
SWIDTH 500 0
DWIDTH 8 0
BBX 6 16 2 0
BITMAP
3C
3C
F0
F0
00
00
F0
F0
F0
F0
F0
F0
F0
F0
F0
F0
ENDCHAR
STARTCHAR 00EE
ENCODING 238
SWIDTH 500 0
DWIDTH 8 0
BBX 8 16 0 0
BITMAP
3C
3C
FF
FF
00
00
3C
3C
3C
3C
3C
3C
3C
3C
3C
3C
ENDCHAR
STARTCHAR 00EF
ENCODING 239
SWIDTH 500 0
DWIDTH 8 0
BBX 8 14 0 0
BITMAP
FF
FF
00
00
3C
3C
3C
3C
3C
3C
3C
3C
3C
3C
ENDCHAR
STARTCHAR 00F0
ENCODING 240
SWIDTH 1000 0
DWIDTH 16 0
BBX 12 10 2 0
BITMAP
3FC0
3FC0
3CF0
3CF0
FFF0
FFF0
3CF0
3CF0
3FC0
3FC0
ENDCHAR
STARTCHAR 00F1
ENCODING 241
SWIDTH 1000 0
DWIDTH 16 0
BBX 12 16 2 0
BITMAP
0FF0
0FF0
3FC0
3FC0
0000
0000
F0F0
F0F0
FCF0
FCF0
FFF0
FFF0
F3F0
F3F0
F0F0
F0F0
ENDCHAR
STARTCHAR 00F2
ENCODING 242
SWIDTH 875 0
DWIDTH 14 0
BBX 10 16 2 0
BITMAP
3C00
3C00
0F00
0F00
0000
0000
3F00
3F00
F3C0
F3C0
F3C0
F3C0
F3C0
F3C0
3F00
3F00
ENDCHAR
STARTCHAR 00F3
ENCODING 243
SWIDTH 875 0
DWIDTH 14 0
BBX 10 16 2 0
BITMAP
0F00
0F00
3C00
3C00
0000
0000
3F00
3F00
F3C0
F3C0
F3C0
F3C0
F3C0
F3C0
3F00
3F00
ENDCHAR
STARTCHAR 00F4
ENCODING 244
SWIDTH 875 0
DWIDTH 14 0
BBX 10 16 2 0
BITMAP
3F00
3F00
F3C0
F3C0
0000
0000
3F00
3F00
F3C0
F3C0
F3C0
F3C0
F3C0
F3C0
3F00
3F00
ENDCHAR
STARTCHAR 00F5
ENCODING 245
SWIDTH 875 0
DWIDTH 14 0
BBX 10 16 2 0
BITMAP
3FC0
3FC0
FF00
FF00
0000
0000
3F00
3F00
F3C0
F3C0
F3C0
F3C0
F3C0
F3C0
3F00
3F00
ENDCHAR
STARTCHAR 00F6
ENCODING 246
SWIDTH 875 0
DWIDTH 14 0
BBX 10 14 2 0
BITMAP
F3C0
F3C0
0000
0000
3F00
3F00
F3C0
F3C0
F3C0
F3C0
F3C0
F3C0
3F00
3F00
ENDCHAR
STARTCHAR 00F7
ENCODING 247
SWIDTH 750 0
DWIDTH 12 0
BBX 8 10 2 0
BITMAP
3C
3C
00
00
FF
FF
00
00
3C
3C
ENDCHAR
STARTCHAR 00F8
ENCODING 248
SWIDTH 1000 0
DWIDTH 16 0
BBX 12 10 2 0
BITMAP
3FC0
3FC0
F3F0
F3F0
FFF0
FFF0
FCF0
FCF0
3FC0
3FC0
ENDCHAR
STARTCHAR 00F9
ENCODING 249
SWIDTH 875 0
DWIDTH 14 0
BBX 10 16 2 0
BITMAP
3C00
3C00
0F00
0F00
0000
0000
F3C0
F3C0
F3C0
F3C0
F3C0
F3C0
F3C0
F3C0
3F00
3F00
ENDCHAR
STARTCHAR 00FA
ENCODING 250
SWIDTH 875 0
DWIDTH 14 0
BBX 10 16 2 0
BITMAP
0F00
0F00
3C00
3C00
0000
0000
F3C0
F3C0
F3C0
F3C0
F3C0
F3C0
F3C0
F3C0
3F00
3F00
ENDCHAR
STARTCHAR 00FB
ENCODING 251
SWIDTH 875 0
DWIDTH 14 0
BBX 10 16 2 0
BITMAP
3F00
3F00
F3C0
F3C0
0000
0000
F3C0
F3C0
F3C0
F3C0
F3C0
F3C0
F3C0
F3C0
3F00
3F00
ENDCHAR
STARTCHAR 00FC
ENCODING 252
SWIDTH 875 0
DWIDTH 14 0
BBX 10 14 2 0
BITMAP
F3C0
F3C0
0000
0000
F3C0
F3C0
F3C0
F3C0
F3C0
F3C0
F3C0
F3C0
3F00
3F00
ENDCHAR
STARTCHAR 00FD
ENCODING 253
SWIDTH 1000 0
DWIDTH 16 0
BBX 12 16 2 0
BITMAP
03C0
03C0
0F00
0F00
0000
0000
F0F0
F0F0
3FC0
3FC0
0F00
0F00
0F00
0F00
0F00
0F00
ENDCHAR
STARTCHAR 00FE
ENCODING 254
SWIDTH 750 0
DWIDTH 12 0
BBX 8 10 2 0
BITMAP
F0
F0
FC
FC
FF
FF
FC
FC
F0
F0
ENDCHAR
STARTCHAR 00FF
ENCODING 255
SWIDTH 1000 0
DWIDTH 16 0
BBX 12 14 2 0
BITMAP
3FC0
3FC0
0000
0000
F0F0
F0F0
3FC0
3FC0
0F00
0F00
0F00
0F00
0F00
0F00
ENDCHAR
STARTCHAR 0152
ENCODING 338
SWIDTH 1000 0
DWIDTH 16 0
BBX 12 10 2 0
BITMAP
3FF0
3FF0
FF00
FF00
FFF0
FFF0
FF00
FF00
3FF0
3FF0
ENDCHAR
STARTCHAR 0153
ENCODING 339
SWIDTH 1000 0
DWIDTH 16 0
BBX 12 10 2 0
BITMAP
3FF0
3FF0
FF00
FF00
FFF0
FFF0
FF00
FF00
3FF0
3FF0
ENDCHAR
STARTCHAR 0160
ENCODING 352
SWIDTH 875 0
DWIDTH 14 0
BBX 10 16 2 0
BITMAP
F3C0
F3C0
3F00
3F00
0000
0000
3FC0
3FC0
F000
F000
3F00
3F00
03C0
03C0
FF00
FF00
ENDCHAR
STARTCHAR 0161
ENCODING 353
SWIDTH 875 0
DWIDTH 14 0
BBX 10 16 2 0
BITMAP
F3C0
F3C0
3F00
3F00
0000
0000
3FC0
3FC0
F000
F000
3F00
3F00
03C0
03C0
FF00
FF00
ENDCHAR
STARTCHAR 0178
ENCODING 376
SWIDTH 1000 0
DWIDTH 16 0
BBX 12 14 2 0
BITMAP
3FC0
3FC0
0000
0000
F0F0
F0F0
3FC0
3FC0
0F00
0F00
0F00
0F00
0F00
0F00
ENDCHAR
STARTCHAR 017D
ENCODING 381
SWIDTH 750 0
DWIDTH 12 0
BBX 8 16 2 0
BITMAP
FF
FF
3C
3C
00
00
FF
FF
0F
0F
3C
3C
F0
F0
FF
FF
ENDCHAR
STARTCHAR 017E
ENCODING 382
SWIDTH 750 0
DWIDTH 12 0
BBX 8 16 2 0
BITMAP
FF
FF
3C
3C
00
00
FF
FF
0F
0F
3C
3C
F0
F0
FF
FF
ENDCHAR
STARTCHAR 0192
ENCODING 402
SWIDTH 1000 0
DWIDTH 16 0
BBX 12 12 2 -2
BITMAP
0FF0
0FF0
0F00
0F00
3FC0
3FC0
3C00
3C00
3C00
3C00
F000
F000
ENDCHAR
STARTCHAR 02C6
ENCODING 710
SWIDTH 750 0
DWIDTH 12 0
BBX 8 4 2 8
BITMAP
3C
3C
FF
FF
ENDCHAR
STARTCHAR 02DC
ENCODING 732
SWIDTH 875 0
DWIDTH 14 0
BBX 10 4 2 6
BITMAP
3FC0
3FC0
FF00
FF00
ENDCHAR
STARTCHAR 2013
ENCODING 8211
SWIDTH 875 0
DWIDTH 14 0
BBX 10 2 2 4
BITMAP
FFC0
FFC0
ENDCHAR
STARTCHAR 2014
ENCODING 8212
SWIDTH 1125 0
DWIDTH 18 0
BBX 14 2 2 4
BITMAP
FFFC
FFFC
ENDCHAR
STARTCHAR 2018
ENCODING 8216
SWIDTH 500 0
DWIDTH 8 0
BBX 4 4 2 6
BITMAP
F0
F0
F0
F0
ENDCHAR
STARTCHAR 2019
ENCODING 8217
SWIDTH 500 0
DWIDTH 8 0
BBX 4 4 2 6
BITMAP
F0
F0
F0
F0
ENDCHAR
STARTCHAR 201A
ENCODING 8218
SWIDTH 625 0
DWIDTH 10 0
BBX 6 4 2 -2
BITMAP
3C
3C
F0
F0
ENDCHAR
STARTCHAR 201C
ENCODING 8220
SWIDTH 750 0
DWIDTH 12 0
BBX 8 4 2 6
BITMAP
FF
FF
FF
FF
ENDCHAR
STARTCHAR 201D
ENCODING 8221
SWIDTH 750 0
DWIDTH 12 0
BBX 8 4 2 6
BITMAP
FF
FF
FF
FF
ENDCHAR
STARTCHAR 201E
ENCODING 8222
SWIDTH 750 0
DWIDTH 12 0
BBX 8 4 2 0
BITMAP
FF
FF
FF
FF
ENDCHAR
STARTCHAR 2020
ENCODING 8224
SWIDTH 750 0
DWIDTH 12 0
BBX 8 10 2 0
BITMAP
3C
3C
FF
FF
3C
3C
3C
3C
3C
3C
ENDCHAR
STARTCHAR 2021
ENCODING 8225
SWIDTH 750 0
DWIDTH 12 0
BBX 8 10 2 0
BITMAP
3C
3C
FF
FF
3C
3C
FF
FF
3C
3C
ENDCHAR
STARTCHAR 2022
ENCODING 8226
SWIDTH 500 0
DWIDTH 8 0
BBX 4 2 2 4
BITMAP
F0
F0
ENDCHAR
STARTCHAR 2026
ENCODING 8230
SWIDTH 1000 0
DWIDTH 16 0
BBX 12 2 2 0
BITMAP
FFF0
FFF0
ENDCHAR
STARTCHAR 2030
ENCODING 8240
SWIDTH 1125 0
DWIDTH 18 0
BBX 14 10 2 0
BITMAP
FFC0
FFC0
FFC0
FFC0
0F00
0F00
3FFC
3FFC
3FFC
3FFC
ENDCHAR
STARTCHAR 2039
ENCODING 8249
SWIDTH 625 0
DWIDTH 10 0
BBX 6 6 2 2
BITMAP
3C
3C
F0
F0
3C
3C
ENDCHAR
STARTCHAR 203A
ENCODING 8250
SWIDTH 625 0
DWIDTH 10 0
BBX 6 6 2 2
BITMAP
F0
F0
3C
3C
F0
F0
ENDCHAR
STARTCHAR 20AC
ENCODING 8364
SWIDTH 1000 0
DWIDTH 16 0
BBX 12 10 2 0
BITMAP
0FC0
0FC0
3CF0
3CF0
FF00
FF00
3CF0
3CF0
0FC0
0FC0
ENDCHAR
STARTCHAR 2122
ENCODING 8482
SWIDTH 1250 0
DWIDTH 20 0
BBX 16 6 2 6
BITMAP
FFCF
FFCF
3333
3333
3333
3333
ENDCHAR
ENDFONT
